<?xml version="1.0" encoding="utf-8"?>
<!-- Generator: Adobe Illustrator 15.0.0, SVG Export Plug-In . SVG Version: 6.00 Build 0)  -->
<!DOCTYPE svg PUBLIC "-//W3C//DTD SVG 1.1//EN" "http://www.w3.org/Graphics/SVG/1.1/DTD/svg11.dtd">
<svg version="1.1" id="Ebene_1" xmlns="http://www.w3.org/2000/svg" xmlns:xlink="http://www.w3.org/1999/xlink" x="0px" y="0px"
	 width="96.117px" height="97.324px" viewBox="0 0 96.117 97.324" enable-background="new 0 0 96.117 97.324" xml:space="preserve">
<g>
	<path fill="#C2AE62" d="M10.383,48.969c0-20.944,16.972-37.919,37.913-37.919c20.944,0,37.919,16.975,37.919,37.919
		S69.241,86.885,48.296,86.885C27.355,86.885,10.383,69.913,10.383,48.969"/>
	<path fill="#FFFFFF" d="M93.563,59.416l0.144,4.901c-1.869,2.106-3.867,3.987-6.009,5.634c-2.145,1.655-4.295,2.974-6.466,3.949
		c-2.136,0.97-4.093,1.459-5.868,1.465c-2.689,0-5.177-1.254-7.471-3.759C65.637,69.069,64.5,64.44,64.5,57.711
		c0-2.959,0.246-6.094,0.735-9.396c0.519-3.328,1.342-7.046,2.476-11.139c1.166-4.096,2.473-7.898,3.943-11.417
		c1.465-3.542,3.117-6.782,4.951-9.718l-0.188-0.182c-3.208,3.208-6.006,7.119-8.385,11.733c-2.385,4.585-5.227,11.004-8.531,19.254
		c-0.914,2.265-1.828,4.512-2.748,6.741c-0.888,2.235-1.939,4.6-3.164,7.104c-1.225,2.508-2.52,4.802-3.896,6.876
		c-1.345,2.077-2.795,3.896-4.356,5.461c-0.823,0.888-1.802,1.491-2.933,1.828s-2.783,0.501-4.951,0.507
		c-0.826,0-1.374-0.062-1.652-0.185c-0.275-0.123-0.41-0.398-0.41-0.826c0.123-0.668,0.287-1.57,0.504-2.701
		c0.246-1.128,0.533-2.906,0.873-5.32c0.334-2.443,0.639-5.944,0.917-10.497c0.275-4.591,0.41-9.489,0.41-14.716
		c0-2.692,0.155-5.47,0.46-8.341c0.305-2.874,0.791-5.766,1.465-8.666c0.674-2.933,1.465-5.473,2.385-7.614l-0.182-0.179
		c-1.102,1.189-2.186,3.038-3.255,5.546c-1.04,2.505-2.083,5.563-3.117,9.167c-1.011,3.609-2.142,7.811-3.393,12.606
		c-1.315,5.171-2.552,9.325-3.715,12.472c-1.16,3.114-2.396,5.807-3.712,8.071c-1.315,2.229-2.877,4.248-4.676,6.047
		c-3.422,3.425-7.017,5.13-10.772,5.136c-2.479,0-4.6-0.765-6.372-2.297c-1.775-1.556-2.66-3.343-2.66-5.358
		c0-0.885,0.504-1.925,1.515-3.12c1.008-1.222,2.153-2.323,3.437-3.299c1.283-0.979,2.077-1.468,2.385-1.468
		c0.885,0,1.418,0.272,1.603,0.829c0.214,0.548,0.489,2.077,0.826,4.582c0.12,0.946,0.504,1.863,1.146,2.748
		c0.674,0.855,1.699,1.28,3.07,1.28c1.254,0,2.631-0.773,4.125-2.332c2.08-2.074,4.037-5.306,5.871-9.677
		c1.863-4.4,3.668-10.049,5.408-16.957c1.497-6.114,2.719-10.652,3.668-13.617c0.943-2.994,2.063-5.672,3.346-8.021
		c1.313-2.388,3.193-5.256,5.64-8.619c0.762-0.366,1.849-0.627,3.255-0.782c1.436-0.152,3.12-0.305,5.045-0.454
		c0.668,0,1.002,0.381,1.002,1.143c0,0.398-0.044,0.917-0.135,1.559c-0.088,0.609-0.229,1.685-0.41,3.211
		c-0.155,1.526-0.293,3.255-0.416,5.177c-0.091,1.901-0.135,3.686-0.135,5.364c0.026,1.532,0.044,3.009,0.044,4.447
		c0.026,1.409,0.044,3.929,0.05,7.567c0,11.033-0.861,19.544-2.572,25.535l0.182,0.185c1.104-1.497,2.162-3.413,3.17-5.736
		c1.034-2.317,2.288-5.423,3.756-9.305c1.494-3.908,2.701-6.908,3.621-8.985c1.863-4.274,3.498-7.825,4.907-10.635
		c1.406-2.842,2.974-5.531,4.72-8.071c1.772-2.531,3.703-4.84,5.78-6.92c0.548-0.606,1.31-1.33,2.285-2.156
		c0.981-0.823,1.655-1.263,2.024-1.327l5.821-0.735c0.548-0.059,1.034-0.105,1.468-0.135c0.451-0.032,0.838-0.044,1.143-0.044
		c0.305-0.032,0.58,0,0.826,0.091c0.27,0.088,0.416,0.275,0.416,0.548c0,0.34-0.721,2.338-2.162,6.006
		c-1.436,3.636-2.502,6.677-3.202,9.123c-1.104,4.005-2.065,7.808-2.892,11.411c-0.826,3.609-1.547,7.327-2.156,11.145
		c-0.58,3.82-0.867,7.184-0.867,10.081c0,6.331,1.969,9.492,5.915,9.492C85.969,66.837,89.47,64.361,93.563,59.416"/>
	
		<path fill="none" stroke="#525556" stroke-width="1.8" stroke-linecap="round" stroke-linejoin="round" stroke-miterlimit="10" stroke-dasharray="0,3.678" d="
		M92.62,52.675C90.8,74.914,72.622,92.521,50.133,93.436"/>
	
		<path fill="none" stroke="#525556" stroke-width="1.8" stroke-linecap="round" stroke-linejoin="round" stroke-miterlimit="10" stroke-dasharray="0,3.678" d="
		M44.625,93.324C22.389,91.505,4.782,73.323,3.868,50.838"/>
	
		<path fill="none" stroke="#525556" stroke-width="1.8" stroke-linecap="round" stroke-linejoin="round" stroke-miterlimit="10" stroke-dasharray="0,3.678" d="
		M3.979,45.327C5.795,23.091,23.977,5.483,46.459,4.569"/>
	
		<path fill="none" stroke="#525556" stroke-width="1.8" stroke-linecap="round" stroke-linejoin="round" stroke-miterlimit="10" stroke-dasharray="0,3.678" d="
		M51.97,4.684C74.209,6.5,91.817,24.682,92.731,47.164"/>
	<path fill="none" stroke="#525556" stroke-width="1.8" stroke-linecap="round" stroke-linejoin="round" stroke-miterlimit="10" d="
		M92.766,49.001L92.766,49.001 M48.299,4.531L48.299,4.531 M3.827,49.001L3.827,49.001 M48.299,93.474L48.299,93.474"/>
</g>
</svg>
