<?xml version="1.0" encoding="utf-8"?>
<!-- Generator: Adobe Illustrator 15.0.0, SVG Export Plug-In . SVG Version: 6.00 Build 0)  -->
<!DOCTYPE svg PUBLIC "-//W3C//DTD SVG 1.1//EN" "http://www.w3.org/Graphics/SVG/1.1/DTD/svg11.dtd">
<svg version="1.1" id="Ebene_1" xmlns="http://www.w3.org/2000/svg" xmlns:xlink="http://www.w3.org/1999/xlink" x="0px" y="0px"
	 width="60px" height="60px" viewBox="0 0 60 60" enable-background="new 0 0 60 60" xml:space="preserve">
<path fill="#312C2F" d="M30.006,5.922c-13.408,0-24.314,10.907-24.314,24.314c0,13.406,10.906,24.314,24.314,24.314
	c13.406,0,24.314-10.908,24.314-24.314C54.32,16.829,43.412,5.922,30.006,5.922L30.006,5.922z M30.006,57.482
	c-15.023,0-27.247-12.223-27.247-27.246c0-15.024,12.224-27.246,27.247-27.246c15.023,0,27.246,12.222,27.246,27.246
	C57.252,45.26,45.029,57.482,30.006,57.482"/>
<path fill="#312C2F" d="M36.17,21.586v1.661c0,0.201,0.164,0.365,0.365,0.365h7.285c0.201,0,0.363-0.164,0.363-0.365v-1.661
	c0-0.202-0.162-0.365-0.363-0.365h-7.285C36.334,21.221,36.17,21.384,36.17,21.586L36.17,21.586z M24.572,36.78h-4.999
	c-0.203,0-0.368-0.165-0.368-0.368v-4.461c0-0.203,0.165-0.368,0.368-0.368h5.283c0,0,2.051-0.019,2.042,2.675
	C26.898,36.525,25.375,36.762,24.572,36.78L24.572,36.78z M19.205,24.628c0-0.204,0.165-0.369,0.368-0.369h5.283
	c0,0,1.37,0,1.37,2.022s-0.804,2.316-1.721,2.316h-4.933c-0.203,0-0.368-0.165-0.368-0.369V24.628L19.205,24.628z M28.585,29.854
	c-0.244-0.08-0.279-0.414-0.05-0.529c0.832-0.423,1.81-1.344,1.81-3.345c0-3.467-2.418-5.169-5.489-5.169h-9.594
	c-0.28,0-0.51,0.229-0.51,0.51v18.398c0,0.282,0.229,0.51,0.51,0.51h9.593c0,0,6.171,0.191,6.171-5.734
	C31.027,34.494,31.234,30.729,28.585,29.854L28.585,29.854z M37.529,31.583c-0.275,0-0.471-0.267-0.387-0.53
	c0.277-0.857,1.09-2.456,3.279-2.456c2.26,0,2.795,1.688,2.92,2.526c0.037,0.243-0.154,0.46-0.4,0.46H37.529L37.529,31.583z
	 M40.348,25.752c-7.445,0-7.457,7.418-7.457,7.456c0,0-0.51,7.429,7.457,7.429c0,0,5.996,0.34,6.596-4.381
	c0.051-0.418-0.271-0.789-0.691-0.789h-2.084c-0.303,0-0.574,0.193-0.66,0.482c-0.184,0.617-0.822,1.605-3.047,1.605
	c0,0-2.887,0.193-3.35-2.58c-0.07-0.416,0.266-0.793,0.688-0.793h8.658c0.373,0,0.682-0.293,0.695-0.666
	C47.219,31.525,46.854,25.752,40.348,25.752"/>
</svg>
