<?xml version="1.0" encoding="utf-8"?>
<!-- Generator: Adobe Illustrator 15.0.0, SVG Export Plug-In . SVG Version: 6.00 Build 0)  -->
<!DOCTYPE svg PUBLIC "-//W3C//DTD SVG 1.1//EN" "http://www.w3.org/Graphics/SVG/1.1/DTD/svg11.dtd">
<svg version="1.1" id="Ebene_1" xmlns="http://www.w3.org/2000/svg" xmlns:xlink="http://www.w3.org/1999/xlink" x="0px" y="0px"
	 width="60px" height="60px" viewBox="0 0 60 60" enable-background="new 0 0 60 60" xml:space="preserve">
<path fill="#322C2F" d="M29.435,5.275c-13.434,0-24.362,10.929-24.362,24.361s10.928,24.361,24.362,24.361
	c13.431,0,24.36-10.929,24.36-24.361S42.866,5.275,29.435,5.275L29.435,5.275z M29.435,56.928c-15.05,0-27.293-12.242-27.293-27.292
	c0-15.049,12.243-27.293,27.293-27.293c15.049,0,27.292,12.244,27.292,27.293C56.727,44.686,44.484,56.928,29.435,56.928"/>
<path fill-rule="evenodd" clip-rule="evenodd" fill="#322C2F" d="M25.154,29.765v15.818c0,0.228,0.185,0.412,0.413,0.412h5.875
	c0.227,0,0.411-0.185,0.411-0.412V29.507h4.259c0.214,0,0.392-0.164,0.411-0.377l0.408-4.844c0.021-0.24-0.169-0.447-0.409-0.447
	h-4.669v-3.436c0-0.806,0.652-1.459,1.458-1.459h3.282c0.228,0,0.412-0.184,0.412-0.411v-4.844c0-0.228-0.185-0.412-0.412-0.412
	h-5.546c-3.255,0-5.893,2.638-5.893,5.892v4.67h-2.937c-0.228,0-0.412,0.185-0.412,0.412v4.844c0,0.228,0.184,0.412,0.412,0.412
	h2.937V29.765"/>
</svg>
