<?xml version="1.0" encoding="utf-8"?>
<!-- Generator: Adobe Illustrator 15.0.0, SVG Export Plug-In . SVG Version: 6.00 Build 0)  -->
<!DOCTYPE svg PUBLIC "-//W3C//DTD SVG 1.1//EN" "http://www.w3.org/Graphics/SVG/1.1/DTD/svg11.dtd">
<svg version="1.1" id="Ebene_1" xmlns="http://www.w3.org/2000/svg" xmlns:xlink="http://www.w3.org/1999/xlink" x="0px" y="0px"
	 width="60px" height="60px" viewBox="0 0 60 60" enable-background="new 0 0 60 60" xml:space="preserve">
<path fill="#322C2F" d="M43.348,36.706c0,3.899-3.16,7.06-7.061,7.06H22.72c-3.899,0-7.061-3.16-7.061-7.06V23.137
	c0-3.899,3.161-7.06,7.061-7.06h13.567c3.9,0,7.061,3.161,7.061,7.06V36.706L43.348,36.706z M46.568,23.137
	c0-5.678-4.604-10.28-10.281-10.28H22.72c-5.678,0-10.279,4.602-10.279,10.28v13.569c0,5.677,4.602,10.28,10.279,10.28h13.567
	c5.678,0,10.281-4.604,10.281-10.28V23.137L46.568,23.137z M29.563,35.541c-2.979,0-5.4-2.422-5.4-5.399s2.422-5.399,5.4-5.399
	c2.976,0,5.397,2.422,5.397,5.399S32.538,35.541,29.563,35.541L29.563,35.541z M29.563,21.713c-4.648,0-8.43,3.781-8.43,8.429
	c0,4.647,3.781,8.428,8.43,8.428c4.646,0,8.427-3.781,8.427-8.428C37.989,25.494,34.209,21.713,29.563,21.713L29.563,21.713z
	 M38.482,19.141c-1.109,0-2.008,0.898-2.008,2.006c0,1.108,0.898,2.006,2.008,2.006c1.107,0,2.005-0.898,2.005-2.006
	C40.487,20.039,39.59,19.141,38.482,19.141L38.482,19.141z M29.339,5.603C15.808,5.603,4.8,16.611,4.8,30.142
	c0,13.53,11.008,24.538,24.539,24.538c13.53,0,24.538-11.008,24.538-24.538C53.877,16.611,42.869,5.603,29.339,5.603L29.339,5.603z
	 M29.339,57.256c-14.951,0-27.114-12.164-27.114-27.114c0-14.951,12.163-27.115,27.114-27.115c14.95,0,27.114,12.164,27.114,27.115
	C56.453,45.092,44.289,57.256,29.339,57.256"/>
</svg>
