<?xml version="1.0" encoding="utf-8"?>
<!-- Generator: Adobe Illustrator 15.0.0, SVG Export Plug-In . SVG Version: 6.00 Build 0)  -->
<!DOCTYPE svg PUBLIC "-//W3C//DTD SVG 1.1//EN" "http://www.w3.org/Graphics/SVG/1.1/DTD/svg11.dtd">
<svg version="1.1" id="Ebene_1" xmlns="http://www.w3.org/2000/svg" xmlns:xlink="http://www.w3.org/1999/xlink" x="0px" y="0px"
	 width="60px" height="60px" viewBox="0 0 60 60" enable-background="new 0 0 60 60" xml:space="preserve">
<path fill="#322C2F" d="M29.435,5.422c-13.407,0-24.316,10.907-24.316,24.314c0,13.406,10.909,24.314,24.316,24.314
	c13.406,0,24.313-10.908,24.313-24.314C53.748,16.329,42.841,5.422,29.435,5.422L29.435,5.422z M29.435,56.982
	c-15.025,0-27.247-12.223-27.247-27.246C2.188,14.712,14.41,2.49,29.435,2.49c15.023,0,27.246,12.222,27.246,27.246
	C56.681,44.76,44.458,56.982,29.435,56.982"/>
<path fill="#322C2F" d="M16.914,42.439h5.251c0.251,0,0.455-0.203,0.455-0.455V24.36c0-0.251-0.204-0.455-0.455-0.455h-5.251
	c-0.251,0-0.455,0.204-0.455,0.455v17.624C16.459,42.236,16.663,42.439,16.914,42.439L16.914,42.439z M44.838,31.811v10.174
	c0,0.252-0.204,0.455-0.455,0.455h-5.252c-0.252,0-0.455-0.203-0.455-0.455v-9.461c0-2.49-0.89-4.19-3.121-4.19
	c-1.703,0-2.715,1.145-3.16,2.253c-0.162,0.396-0.204,0.946-0.204,1.501v9.896c0,0.251-0.204,0.455-0.455,0.455h-5.25
	c-0.252,0-0.457-0.203-0.456-0.455c0.012-2.52,0.065-14.745,0.011-17.618c-0.005-0.255,0.2-0.461,0.455-0.461h5.241
	c0.251,0,0.455,0.204,0.455,0.455v2.172c-0.014,0.02-0.031,0.041-0.041,0.06h0.041v-0.06c0.817-1.261,2.278-3.062,5.553-3.062
	C41.798,23.47,44.838,26.119,44.838,31.811"/>
<path fill="#322C2F" d="M22.653,18.25c0,1.821-1.476,3.298-3.297,3.298c-1.823,0-3.299-1.477-3.299-3.298
	c0-1.822,1.476-3.299,3.299-3.299C21.177,14.951,22.653,16.428,22.653,18.25"/>
</svg>
